<?xml version="1.0" standalone="no"?>
<!DOCTYPE svg PUBLIC "-//W3C//DTD SVG 20010904//EN"
 "http://www.w3.org/TR/2001/REC-SVG-20010904/DTD/svg10.dtd">
<svg version="1.0" xmlns="http://www.w3.org/2000/svg"
 width="487.000000pt" height="448.000000pt" viewBox="0 0 487.000000 448.000000"
 preserveAspectRatio="xMidYMid meet">

<g transform="translate(0.000000,448.000000) scale(0.100000,-0.100000)"
fill="#000000" stroke="none">
<path d="M3886 4227 c-21 -13 -363 -345 -758 -737 l-720 -714 -242 247 c-132
135 -254 251 -269 257 -104 38 -212 -27 -224 -133 -3 -25 -2 -58 2 -74 8 -34
613 -645 661 -668 44 -21 90 -19 143 7 34 16 241 216 800 772 802 798 832 829
843 854 24 60 -3 140 -64 185 -43 32 -124 34 -172 4z"/>
<path d="M1515 4144 c-189 -41 -367 -182 -461 -367 -72 -141 -69 -97 -69
-1032 0 -946 -4 -893 78 -1049 59 -114 183 -237 292 -293 164 -83 92 -78 1060
-77 663 0 873 3 915 13 30 7 98 34 150 59 79 39 109 60 180 132 93 93 134 160
172 280 l23 75 0 642 c0 632 0 642 -21 669 -53 71 -121 90 -194 52 -69 -35
-87 -82 -94 -242 l-6 -129 -57 -60 c-116 -122 -1065 -1062 -1071 -1062 -4 1
-256 250 -559 556 l-553 554 0 331 c0 301 2 336 19 387 36 103 98 174 201 228
l45 24 765 5 c687 4 768 7 795 22 66 36 94 90 87 164 -4 44 -64 111 -110 124
-24 6 -299 10 -777 9 -614 -1 -752 -3 -810 -15z m169 -2121 c204 -203 373
-372 375 -376 2 -5 -106 -7 -240 -5 -240 3 -245 3 -301 30 -78 36 -168 130
-196 203 -20 52 -22 75 -22 286 0 126 3 229 7 229 3 0 173 -165 377 -367z
m1860 130 l-7 -238 -32 -65 c-39 -78 -104 -141 -183 -178 -56 -27 -61 -27
-304 -30 -149 -2 -248 0 -248 6 0 5 132 138 293 294 397 388 460 447 475 448
11 0 12 -44 6 -237z"/>
<path d="M1451 771 c-16 -29 -15 -353 1 -369 15 -15 51 -15 66 0 7 7 12 29 12
49 0 21 4 40 9 43 5 3 27 -19 50 -49 42 -56 73 -69 99 -43 19 19 15 26 -40 84
l-52 55 52 51 c42 40 50 53 41 64 -22 26 -58 15 -109 -32 -35 -32 -51 -42 -55
-33 -2 8 -6 55 -7 104 -3 89 -3 90 -30 93 -18 2 -30 -3 -37 -17z"/>
<path d="M1990 771 c-6 -12 -10 -93 -10 -195 0 -165 1 -176 20 -186 14 -8 26
-8 40 0 18 10 20 21 20 125 0 63 3 115 8 115 4 0 26 -34 50 -75 29 -51 48 -75
61 -75 12 0 36 27 70 78 28 42 51 70 51 62 1 -8 2 -59 3 -113 2 -74 6 -100 17
-107 23 -15 57 -12 64 6 3 9 6 94 6 189 0 167 -1 175 -21 185 -38 21 -62 3
-119 -85 -30 -46 -58 -85 -63 -85 -4 0 -37 41 -73 90 -51 70 -71 90 -90 90
-13 0 -28 -9 -34 -19z"/>
<path d="M480 759 c-19 -34 12 -59 72 -59 l48 0 0 -143 c0 -98 4 -147 12 -155
15 -15 54 -16 63 -2 4 6 6 76 6 155 l-1 145 48 0 c55 0 72 12 72 52 l0 28
-155 0 c-146 0 -155 -1 -165 -21z"/>
<path d="M875 651 c-64 -39 -87 -106 -61 -176 30 -77 99 -108 155 -69 22 16
24 16 33 0 12 -21 64 -21 72 0 8 20 6 144 -2 209 -6 42 -11 51 -30 53 -13 2
-24 -3 -28 -12 -5 -14 -9 -14 -34 -1 -38 20 -69 19 -105 -4z m104 -87 c26 -33
26 -49 1 -74 -39 -39 -100 -14 -100 41 0 59 63 79 99 33z"/>
<path d="M1196 645 c-51 -48 -27 -135 39 -135 23 0 65 -26 65 -41 0 -14 -53
-11 -76 6 -19 13 -23 12 -45 -11 l-24 -26 29 -25 c26 -22 37 -25 85 -21 65 6
101 38 101 92 0 40 -23 63 -81 80 -24 7 -45 18 -47 24 -5 16 55 15 61 0 7 -21
42 5 45 34 6 50 -104 67 -152 23z"/>
<path d="M2516 649 c-38 -30 -56 -71 -56 -128 0 -44 4 -55 38 -91 31 -32 46
-40 74 -40 19 0 43 6 54 14 16 13 21 12 36 -1 9 -8 27 -13 40 -11 23 3 23 4
23 138 0 122 -2 135 -18 138 -10 2 -26 -3 -35 -11 -15 -13 -20 -14 -36 -1 -29
21 -89 18 -120 -7z m113 -85 c12 -15 21 -35 21 -45 0 -20 -36 -49 -62 -49 -43
0 -64 66 -31 102 23 25 48 22 72 -8z"/>
<path d="M2827 663 c-4 -3 -7 -64 -7 -133 0 -137 8 -158 50 -145 18 6 20 14
20 89 0 89 13 116 56 116 35 0 44 -21 44 -95 0 -81 13 -109 51 -103 23 3 24 7
27 83 4 103 -4 142 -33 171 -28 28 -79 32 -112 9 -18 -13 -22 -13 -33 0 -13
15 -51 20 -63 8z"/>
<path d="M3210 654 c-39 -25 -62 -62 -68 -110 -6 -53 11 -96 50 -129 32 -27
95 -34 115 -14 8 8 17 8 31 0 31 -17 60 -13 72 8 11 22 13 155 2 216 -7 37 -9
40 -37 36 -17 -1 -33 -7 -36 -12 -3 -6 -11 -3 -19 6 -16 20 -78 19 -110 -1z
m109 -90 c26 -33 26 -49 1 -74 -55 -55 -136 24 -83 82 23 26 58 22 82 -8z"/>
<path d="M3566 651 c-41 -27 -55 -57 -56 -119 0 -67 25 -107 78 -123 31 -9 45
-8 76 5 21 9 40 16 42 16 11 0 2 -41 -14 -60 -23 -29 -66 -29 -96 -1 -26 25
-49 27 -66 6 -10 -12 -10 -21 -2 -40 37 -81 183 -84 232 -3 18 30 20 47 18
183 -3 136 -5 150 -21 153 -10 2 -27 -4 -37 -13 -17 -16 -21 -16 -42 -1 -30
22 -77 20 -112 -3z m112 -74 c6 -6 13 -24 17 -38 12 -49 -61 -84 -99 -48 -14
12 -11 66 4 83 15 19 63 21 78 3z"/>
<path d="M3914 651 c-34 -21 -64 -75 -64 -115 0 -74 65 -146 131 -146 46 0 94
22 109 50 8 15 6 22 -11 34 -19 13 -24 12 -54 -6 -36 -20 -57 -16 -85 16 -11
14 -7 16 31 16 24 0 68 3 97 6 46 6 52 9 52 31 0 102 -118 168 -206 114z m114
-63 c22 -22 13 -28 -38 -28 -27 0 -50 4 -50 8 0 16 25 32 50 32 14 0 31 -5 38
-12z"/>
<path d="M4202 658 c-17 -17 -17 -239 0 -256 17 -17 55 -15 62 4 3 9 6 49 6
89 0 80 13 100 56 89 26 -7 57 27 52 58 -2 18 -10 24 -36 26 -21 2 -41 -3 -52
-13 -15 -14 -18 -14 -30 0 -15 18 -41 20 -58 3z"/>
</g>
</svg>
